<svg id="atacadao" xmlns="http://www.w3.org/2000/svg" width="764.3" height="700.7" viewBox="0 0 764.3 700.7">
  <path id="path4" d="M527.1,492.3v45.3c-3,46.8-34.7,52.9-80,55.9V700.7H753.7V593.5c-45.3-3-77-9.1-80-55.9V492.3Z" fill="#f86302"/>
  <path id="path6" d="M7.6,303.6H756.7c4.5,0,7.6,4.5,7.6,9.1,0,4.5-3,9.1-7.6,9.1H7.6c-4.5,0-7.6-4.5-7.6-9.1,0-6.1,3-9.1,7.6-9.1" fill="#009e61"/>
  <path id="path8" d="M7.6,347.4H756.7c4.5,0,7.6,4.5,7.6,9.1,0,4.5-3,9.1-7.6,9.1H7.6c-4.5,0-7.6-4.5-7.6-9.1s3-9.1,7.6-9.1" fill="#009e61"/>
  <path id="path10" d="M7.6,391.2H756.7c4.5,0,7.6,4.5,7.6,9.1,0,4.5-3,9.1-7.6,9.1H7.6c-4.5,0-7.6-4.5-7.6-9.1s3-9.1,7.6-9.1" fill="#009e61"/>
  <path id="path12" d="M7.6,436.5H756.7c4.5,0,7.6,4.5,7.6,9.1,0,4.5-3,9.1-7.6,9.1H7.6C3,454.6,0,450,0,445.5c0-6,3-9,7.6-9" fill="#009e61"/>
  <path id="path14" d="M7.6,480.3H756.7c4.5,0,7.6,4.5,7.6,9.1,0,4.5-3,9.1-7.6,9.1H7.6c-4.5,0-7.6-4.5-7.6-9.1,0-6.1,3-9.1,7.6-9.1" fill="#009e61"/>
  <path id="path16" d="M12.1,593.5V700.7H321.7V593.5c-22.7,0-36.2-1.5-45.3-10.6-10.6-7.6-9.1-18.1,1.5-34.7L528.6,179.7V302H675.1V0H496.9l-361,525.6C99.7,581.4,86.1,595,12.1,593.5" fill="#f86302"/>
  <g id="g38" transform="translate(-0.2 -0.3)">
    <path id="path36" d="M33.4,682.9H25.8v-77H53c60.4,0,99.7-71,101.2-71L509.1,23H655.6v4.5H516.7L163.3,536.4c-1.5,3-40.8,74-105.7,74H33.4Z" fill="#ffa076" stroke="#ffa076" stroke-miterlimit="10" stroke-width="0.6"/>
  </g>
  <path id="path40" d="M660,504.4H539.2v48.3c-3,45.3-33.2,49.8-77,52.9h-3v75.5h6v-71c43.8-3,77-10.6,80-58.9V508.9H660v-4.5Z" fill="#ffa076" stroke="#ffa076" stroke-miterlimit="10" stroke-width="0.6"/>
  <path id="polyline42" d="M675.1,302H657V22.7L675.1,0" fill="#932d00"/>
  <path id="polygon44" d="M528.6,302H675.1V283.9H543.7Z" fill="#932d00"/>
  <path id="polygon46" d="M447,700.7H753.6V682.6H459.1Z" fill="#932d00"/>
  <path id="polygon48" d="M735.5,604.1v95.1l18.1,1.5V593.5Z" fill="#932d00"/>
  <path id="polygon50" d="M12.1,700.7H321.7V682.6H25.7Z" fill="#932d00"/>
  <path id="polygon52" d="M303.6,604.1v95.1l18.1,1.5V593.5Z" fill="#af3d04"/>
  <g id="g58" transform="translate(-0.2 -0.3)">
    <path id="polyline54" d="M528.8,154.3V180L276.6,550H261.5" fill="#932d00"/>
    <path id="path56" d="M263,547s-33.2,46.8,40.8,57.4c10.6-6,18.1-10.6,18.1-10.6s-77,0-45.3-43.8c21.1-42.3-13.6-3-13.6-3Z" fill="#932d00"/>
  </g>
</svg>
