<svg xmlns="http://www.w3.org/2000/svg" width="799.198" height="529.799" viewBox="0 0 799.198 529.799">
  <g id="carrefour" transform="translate(-100.887)">
    <path id="Path_7" data-name="Path 7" d="M337.21,17.893,118.765,229.223c-10.91,9.263-17.878,20.142-17.878,35.708,0,15.495,6.976,26.413,17.878,35.748L337.21,511.937a5.65,5.65,0,0,0,3.911,2.006c2.07,0,3.5-1.88,3.433-4.091a6.258,6.258,0,0,0-1.92-4.091C291.36,442.056,254.052,368.992,254.052,265.7c0-103.356,37.308-177.854,88.582-241.606a6.143,6.143,0,0,0,1.92-4.083c.07-2.258-1.363-4.084-3.433-4.084a5.516,5.516,0,0,0-3.91,1.967" fill="#e3000d"/>
    <path id="Path_8" data-name="Path 8" d="M505.15,0C419.616,0,386.2,121.21,386.2,265.683c0,144.52,33.42,264.116,118.953,264.116,51.33,0,95.08-30.058,95.221-54.762a20.8,20.8,0,0,0-6.6-15.111c-24.328-23.506-33.843-46.995-33.913-67.726-.157-39.573,34.172-69.05,65.821-69.05,43.507,0,69.168,34.2,69.168,78.479,0,41.963-17.878,76.911-37.331,104.9a6.454,6.454,0,0,0-1.113,3.542c.016,2.195,1.309,4,3.245,4a6,6,0,0,0,4.06-2.14l218.5-211.258c10.91-9.327,17.878-20.253,17.878-35.748,0-15.558-6.976-26.445-17.878-35.709L663.707,17.886a6.025,6.025,0,0,0-4.06-2.132c-1.952,0-3.23,1.818-3.245,4.02a6.5,6.5,0,0,0,1.113,3.551c19.445,27.95,37.33,62.937,37.33,104.869,0,44.252-25.66,78.479-69.167,78.479-31.649,0-65.978-29.454-65.821-69.035.07-20.73,9.585-44.244,33.914-67.726,4.538-4.545,6.622-9.68,6.6-15.1C600.229,30.073,556.479,0,505.15,0" fill="#004e9f"/>
  </g>
</svg>
