<svg xmlns="http://www.w3.org/2000/svg" width="200.777" height="66.66" viewBox="0 0 200.777 66.66">
  <path id="samsung" d="M200.653,15.87C197.923.194,150.822-4.7,95.446,4.943,72.19,8.994,51.191,14.969,34.838,21.691c2.512.055,4.375.631,5.507,1.76a4.909,4.909,0,0,1,1.332,3.617v1.555h-5.43V27.25a1.721,1.721,0,0,0-1.9-1.853,1.681,1.681,0,0,0-1.853,1.369,2.63,2.63,0,0,0,.022,1.084c.581,2.375,8.644,3.85,9.521,8.233a10.439,10.439,0,0,1,.025,3.5c-.5,3.535-3.609,4.9-7.563,4.9-5.519,0-7.761-2.614-7.761-6.218l0-1.705h5.821l0,2.124a1.831,1.831,0,0,0,2.05,1.853,1.782,1.782,0,0,0,2-1.373,2.694,2.694,0,0,0-.04-1.527c-1.077-2.7-8.606-3.964-9.533-8.333a7.316,7.316,0,0,1-.052-2.875,5.606,5.606,0,0,1,.482-1.511C9.333,33.4-1.278,42.732.124,50.791,2.857,66.469,49.957,71.356,105.332,61.715c24.342-4.237,46.226-10.58,62.881-17.688-.241.012-.475.038-.725.038-3.79,0-7.174-1.42-7.525-5.294-.062-.705-.073-1-.075-1.4l0-8.906c0-.384.045-1.058.088-1.406.449-3.744,3.409-5.288,7.512-5.288,3.175,0,7.068.911,7.5,5.291a12.722,12.722,0,0,1,.05,1.33v.841h-5.484V27.976a5.3,5.3,0,0,0-.068-.789,1.85,1.85,0,0,0-2.033-1.483,1.888,1.888,0,0,0-2.043,1.484,4.694,4.694,0,0,0-.084.987v9.679a4.372,4.372,0,0,0,.046.792,2.216,2.216,0,0,0,4.184,0,4.557,4.557,0,0,0,.051-.792v-3h-2.158v-3.23h7.631v5.746a13.639,13.639,0,0,1-.074,1.4,5.4,5.4,0,0,1-.914,2.611c17.663-8.387,27.947-17.57,26.563-25.512ZM57.065,43.653,54.287,24.777h-.1L51.338,43.653H45.483l3.938-21.317h9.553l3.914,21.317H57.065Zm28.162,0L85.1,25.142H85L81.559,43.653h-5.5L72.636,25.142h-.1l-.125,18.511H66.968l.472-21.317H76.2l2.55,15.835h.125L81.43,22.336h8.754l.47,21.317Zm25.641-4.131c-.586,4.129-4.631,4.851-7.49,4.851-4.747,0-7.683-2.029-7.683-6.158l0-1.684h5.751l0,2.1a1.813,1.813,0,0,0,2.043,1.836,1.764,1.764,0,0,0,1.979-1.356,2.714,2.714,0,0,0-.037-1.513c-1.06-2.651-8.53-3.95-9.438-8.251a7.187,7.187,0,0,1-.052-2.849c.632-3.9,4.374-4.709,7.386-4.709,2.694,0,4.655.588,5.831,1.764a4.864,4.864,0,0,1,1.321,3.582v1.538h-5.378V27.314a1.709,1.709,0,0,0-1.88-1.834,1.676,1.676,0,0,0-1.854,1.356,2.59,2.59,0,0,0,.026,1.072c.576,2.364,8.568,3.809,9.443,8.151A10.352,10.352,0,0,1,110.868,39.522Zm19.918-1.937c.008.4-.031,1.2-.053,1.4-.328,3.512-2.84,5.3-7.447,5.3-4.625,0-7.139-1.785-7.465-5.3q-.055-.7-.053-1.4V22.331h5.5V38.07a4.028,4.028,0,0,0,.047.793,2.048,2.048,0,0,0,3.938,0,5.164,5.164,0,0,0,.05-.8V22.331h5.481Zm23.705,5.851h-7.656L141.7,26.551h-.086l.285,16.885h-5.336v-21.1h7.977l4.75,16.22h.111l-.281-16.22h5.375v21.1Z" transform="translate(0 0)"/>
</svg>
