<svg xmlns="http://www.w3.org/2000/svg" width="176.919" height="56.594" viewBox="0 0 176.919 56.594">
  <g id="tim" transform="translate(-7.92 -68.082)">
    <path id="Path_7" data-name="Path 7" d="M180.5,78.789S153.42,68.082,96.378,68.082,12.253,78.789,12.253,78.789C9.7,80.446,7.92,81.377,7.92,83.762v25.871c0,2.386,3.224,5.355,5.608,5.355,0,0,28.314,9.688,82.851,9.688s82.851-9.688,82.851-9.688c2.385,0,5.609-2.972,5.609-5.355V83.762c0-2.386-1.785-3.317-4.335-4.973Z" fill="#33348e"/>
    <path id="Path_8" data-name="Path 8" d="M127.121,80.063l-7.906,30.591h7.307l7.909-30.591Zm-4.336,0H99.479l-1.83,6.118h8.4l-6.658,24.473H106.7l6.657-24.473h7.6Zm36.18,0-7.439,10.2-2.588-10.2h-7.309l-7.9,30.591h7.306l4.533-17.546,2.907,8.707,6.713-7.12-4.123,15.959h7.3l7.907-30.591Z" fill="#fff"/>
    <path id="Path_9" data-name="Path 9" d="M73.689,86.181l-2.931-5.736L46.667,86.181H30.218L29.405,89.5h16.88L71.65,83.759,74.455,89.5H90.914l.812-3.314Z" fill="#cc2229"/>
    <path id="Path_10" data-name="Path 10" d="M69.563,85.8l-24.09,5.737H29.023l-.91,3.569H44.994l25.365-5.736,2.8,5.736H89.622l.91-3.569H72.5Z" fill="#cc2229"/>
    <path id="Path_11" data-name="Path 11" d="M66.853,91.983,43.782,97.719H27.333L26.167,102.5H43.049L67.9,96.762l2.8,5.734H87.677l1.163-4.777H69.785Z" fill="#cc2229"/>
    <path id="Path_12" data-name="Path 12" d="M62.664,99.563l-20.52,4.718H25.694l-1.715,6.373H43.512l20.673-4.716,3.315,4.716H85.488l1.715-6.373H65.6Z" fill="#cc2229"/>
  </g>
</svg>
